<?xml version="1.0" standalone="no"?>
<!DOCTYPE svg PUBLIC "-//W3C//DTD SVG 20010904//EN"
 "http://www.w3.org/TR/2001/REC-SVG-20010904/DTD/svg10.dtd">
<svg version="1.0" xmlns="http://www.w3.org/2000/svg"
 width="700.000000pt" height="700.000000pt" viewBox="0 0 700.000000 700.000000"
 preserveAspectRatio="xMidYMid meet">
<metadata>
Created by potrace 1.14, written by Peter Selinger 2001-2017
</metadata>
<g transform="translate(0.000000,700.000000) scale(0.100000,-0.100000)"
fill="#000000" stroke="none">
<path d="M5308 5245 c-2 -3 -29 -7 -60 -9 -211 -19 -463 -92 -667 -195 -194
-98 -324 -193 -484 -356 -239 -243 -410 -604 -452 -951 -4 -33 -9 -68 -11 -79
-6 -35 -6 -327 1 -390 18 -175 58 -347 112 -485 128 -325 375 -624 664 -801
30 -19 64 -40 75 -47 110 -72 407 -183 554 -208 14 -3 31 -7 38 -9 7 -3 39 -8
70 -11 31 -3 59 -7 63 -9 8 -5 191 -16 279 -17 76 -1 282 10 316 16 11 2 46 7
79 10 175 19 432 84 562 141 121 54 130 59 127 75 -7 30 -95 486 -100 515 -4
25 -28 146 -39 195 -2 8 -4 23 -4 33 -1 15 -8 14 -60 -12 -137 -70 -295 -128
-433 -161 -448 -106 -802 -8 -1028 285 -174 226 -238 619 -164 1000 10 51 65
205 86 244 63 110 156 222 242 289 62 49 238 126 315 138 20 3 56 10 81 14 46
9 288 6 326 -3 12 -3 39 -8 59 -11 144 -23 331 -88 496 -172 37 -19 69 -34 72
-34 2 0 8 19 12 43 4 23 9 49 11 57 6 32 17 86 19 95 2 6 5 26 9 45 3 19 17
94 32 165 14 72 28 144 31 160 2 17 13 69 23 117 13 64 14 90 6 96 -15 12
-172 78 -243 103 -131 45 -303 84 -454 104 -24 3 -60 8 -79 11 -44 6 -476 14
-482 9z"/>
<path d="M220 5160 c-3 -312 1 -3404 4 -3407 8 -8 806 -7 813 1 3 3 6 413 6
910 l0 904 22 -27 c12 -14 42 -55 67 -91 50 -72 104 -149 295 -420 71 -102
182 -259 246 -350 64 -91 120 -169 124 -175 5 -5 62 -86 128 -180 65 -93 171
-244 234 -333 64 -90 126 -179 138 -197 12 -18 27 -37 34 -40 8 -6 871 -10
1052 -6 l27 1 0 1715 c0 943 -3 1716 -7 1716 -5 1 -191 2 -415 3 l-408 1 0
-858 c0 -488 -4 -856 -9 -853 -5 3 -36 43 -70 88 -34 46 -68 90 -75 99 -7 9
-62 81 -122 160 -59 79 -112 149 -116 154 -4 6 -18 24 -31 40 -13 17 -112 147
-220 290 -108 143 -215 285 -238 315 -23 30 -125 165 -227 300 -102 135 -189
249 -194 255 -6 6 -201 10 -533 10 l-525 0 0 -25z"/>
</g>
</svg>
