<svg width="32" height="32" viewBox="0 0 32 32" fill="none" xmlns="http://www.w3.org/2000/svg">
<rect width="32" height="32" rx="4" fill="#0094FF"/>
<path d="M24.513 8.19C25.1512 8.77201 25.718 9.41631 26.2034 10.1114C27.2462 11.6124 27.9318 13.3498 27.9564 15.1773L28 18.4227V27H24.0007V16.0045C24.0007 13.9241 23.234 12.181 21.7006 10.775C20.1672 9.36904 18.2676 8.66607 16.002 8.66607C13.7324 8.66607 11.8312 9.36904 10.2985 10.775C8.76571 12.181 7.99934 13.9226 7.99934 16V27H4V6.1577C4 5.85082 4.13289 5.55649 4.36947 5.3394C4.60605 5.12232 4.92695 5.00024 5.26166 5H6.7367C7.07158 5 7.39273 5.12197 7.62953 5.33908C7.86632 5.5562 7.99934 5.85066 7.99934 6.1577V7.73918C10.2185 5.91306 12.8847 5 15.998 5C19.3559 5 22.1942 6.06333 24.513 8.19Z" fill="white"/>
</svg>
