<svg width="24" height="24" viewBox="0 0 24 24" fill="none" xmlns="http://www.w3.org/2000/svg">
<g id="fi-rs-phone-call" clip-path="url(#clip0_6228_9797)">
<path id="Vector" d="M14.2002 16.261C11.2886 15.0282 8.97325 12.7075 7.7472 9.793L11.1472 6.387L4.8872 0.122L1.7162 3.292C1.1662 3.84514 0.731342 4.50186 0.436795 5.22415C0.142247 5.94645 -0.00614821 6.71998 0.000195101 7.5C0.000195101 14.748 9.25219 24 16.5002 24C17.2801 24.0068 18.0536 23.8586 18.7758 23.5641C19.498 23.2695 20.1545 22.8344 20.7072 22.284L23.8782 19.113L17.6132 12.848L14.2002 16.261ZM19.2922 20.87C18.925 21.234 18.489 21.5214 18.0097 21.7154C17.5304 21.9094 17.0172 22.0061 16.5002 22C10.2672 22 2.0002 13.733 2.0002 7.5C1.99431 6.98283 2.09116 6.46964 2.28514 5.99019C2.47911 5.51074 2.76635 5.07458 3.1302 4.707L4.8872 2.95L8.3242 6.387L5.38919 9.322L5.63419 9.936C6.35544 11.8653 7.48296 13.6171 8.94035 15.0725C10.3977 16.528 12.1509 17.6533 14.0812 18.372L14.6872 18.603L17.6132 15.676L21.0502 19.113L19.2922 20.87ZM14.0002 2V0C16.6515 0.0029116 19.1933 1.05742 21.068 2.93215C22.9428 4.80688 23.9973 7.34873 24.0002 10H22.0002C21.9978 7.879 21.1542 5.84555 19.6544 4.34578C18.1546 2.846 16.1212 2.00238 14.0002 2ZM14.0002 6V4C15.591 4.00159 17.1162 4.63424 18.2411 5.75911C19.366 6.88399 19.9986 8.40919 20.0002 10H18.0002C18.0002 8.93913 17.5788 7.92172 16.8286 7.17157C16.0785 6.42143 15.0611 6 14.0002 6Z" fill="black"/>
</g>
<defs>
<clipPath id="clip0_6228_9797">
<rect width="24" height="24" fill="white"/>
</clipPath>
</defs>
</svg>
